<svg width="48" height="48" viewBox="0 0 48 48" fill="none" xmlns="http://www.w3.org/2000/svg">
<path fill-rule="evenodd" clip-rule="evenodd" d="M31.5 23.994H4.5C3.67157 23.994 3 23.3224 3 22.494C3 21.6656 3.67157 20.994 4.5 20.994V20.9955H31.5C33.9365 20.9951 36.1309 19.5213 37.0529 17.266C37.9749 15.0106 37.4414 12.4217 35.703 10.7145C33.9645 9.00737 31.3663 8.52103 29.1281 9.48384C26.8899 10.4467 25.4561 12.6674 25.5 15.1035C25.4946 15.6394 25.2038 16.1318 24.737 16.3951C24.2702 16.6584 23.6984 16.6527 23.237 16.3801C22.7756 16.1075 22.4946 15.6094 22.5 15.0735V14.9985C22.5008 10.0285 26.53 6.00002 31.5 6.00002C34.7697 5.91558 37.8278 7.61169 39.4876 10.4301C41.1473 13.2485 41.1473 16.7455 39.4876 19.5639C37.8278 22.3824 34.7697 24.0785 31.5 23.994ZM6 41.9926C5.17157 41.9926 4.5 41.321 4.5 40.4926C4.5 39.6641 5.17157 38.9926 6 38.9926C6.82843 38.9926 7.5 39.6641 7.5 40.4926C7.5 41.321 6.82843 41.9926 6 41.9926ZM15.0045 38.9955C15.8329 38.9955 16.5045 39.6671 16.5045 40.4955C16.5045 41.324 15.8329 41.9955 15.0045 41.9955H12C11.1716 41.9955 10.5 41.324 10.5 40.4955C10.5 39.6671 11.1716 38.9955 12 38.9955H15.0045ZM19.5007 40.4933C19.5012 41.3212 20.1723 41.9922 21 41.9926C21.8284 41.9926 22.5 41.321 22.5 40.4926C22.5 39.6641 21.8284 38.9926 21 38.9926C20.1716 38.993 19.5003 39.6649 19.5007 40.4933ZM4.5 30H40.3185C42.7585 30.0471 44.7912 28.1407 44.9007 25.7027C45.0101 23.2647 43.1564 21.1838 40.722 21.012C40.1665 20.9253 39.6091 21.1565 39.2781 21.6111C38.9471 22.0656 38.8981 22.667 39.1511 23.1692C39.4041 23.6713 39.9167 23.9897 40.479 23.994V24.006C41.2908 24.0011 41.9592 24.6429 41.9872 25.4542C42.0152 26.2656 41.3927 26.952 40.5825 27.003C40.5555 27 40.5285 27 40.5 27H4.5C3.67157 27 3 27.6716 3 28.5C3 29.3285 3.67157 30 4.5 30ZM40.227 33C42.6799 32.9078 44.7541 34.7984 44.8891 37.2493C45.0242 39.7002 43.1702 41.8072 40.722 41.985C39.9364 41.9911 39.2792 41.3899 39.2153 40.6069C39.1515 39.8238 39.7028 39.1242 40.479 39.003V38.9895H40.5C41.2994 38.9809 41.9516 38.347 41.9828 37.5482C42.014 36.7494 41.4133 36.0664 40.617 35.9955C40.5781 35.9985 40.539 36 40.5 36H4.5C3.67157 36 3 35.3284 3 34.5C3 33.6716 3.67157 33 4.5 33H40.227ZM30.0045 38.9955H27C26.1716 38.9955 25.5 39.6671 25.5 40.4955C25.5 41.324 26.1716 41.9955 27 41.9955H30.0045C30.8329 41.9955 31.5045 41.324 31.5045 40.4955C31.5045 39.6671 30.8329 38.9955 30.0045 38.9955ZM5.99999 16.5C5.46467 16.4997 4.97001 16.2142 4.70208 15.7506C4.4339 15.2867 4.43361 14.7149 4.70133 14.2506C4.96905 13.7864 5.46409 13.5002 5.99999 13.5C6.82842 13.5 7.49999 14.1716 7.49999 15C7.49999 15.8284 6.82842 16.5 5.99999 16.5ZM18 13.5031H12.0015C11.1731 13.5031 10.5015 14.1746 10.5015 15.0031C10.5015 15.8315 11.1731 16.5031 12.0015 16.5031H18C18.8284 16.5031 19.5 15.8315 19.5 15.0031C19.5 14.1746 18.8284 13.5031 18 13.5031Z" fill="white"/>
</svg>
