<svg width="48" height="48" viewBox="0 0 48 48" fill="none" xmlns="http://www.w3.org/2000/svg">
<path fill-rule="evenodd" clip-rule="evenodd" d="M24 3C24.8284 3 25.5 3.67157 25.5 4.5V9C25.5 9.82843 24.8284 10.5 24 10.5C23.1716 10.5 22.5 9.82843 22.5 9V4.5C22.5 3.67157 23.1716 3 24 3ZM36 24C36 17.3726 30.6274 12 24 12C17.3726 12 12 17.3726 12 24C12 30.6274 17.3726 36 24 36C30.6274 36 36 30.6274 36 24ZM15.2146 24.2144C15.2146 19.2439 19.244 15.2144 24.2146 15.2144C29.1851 15.2144 33.2146 19.2439 33.2146 24.2144C33.2146 29.185 29.1851 33.2144 24.2146 33.2144C19.244 33.2144 15.2146 29.185 15.2146 24.2144ZM39.29 10.2113C39.29 9.81319 39.1317 9.43141 38.8501 9.15006H38.8486C38.2628 8.56449 37.3133 8.56449 36.7276 9.15006L33.5461 12.3331C33.1561 12.7097 32.9997 13.2674 33.137 13.7918C33.2743 14.3163 33.6838 14.7258 34.2083 14.8631C34.7327 15.0004 35.2904 14.844 35.667 14.4541L38.8501 11.2726C39.1317 10.9912 39.29 10.6094 39.29 10.2113ZM45 24C45 24.8284 44.3284 25.5 43.5 25.5H39C38.1716 25.5 37.5 24.8284 37.5 24C37.5 23.1716 38.1716 22.5 39 22.5H43.5C44.3284 22.5 45 23.1716 45 24ZM37.7888 39.29C38.1869 39.29 38.5687 39.1317 38.85 38.85L38.8485 38.8485C39.4341 38.2628 39.4341 37.3133 38.8485 36.7275L35.667 33.546C35.0785 32.9776 34.1429 32.9857 33.5643 33.5643C32.9857 34.1429 32.9776 35.0785 33.546 35.667L36.7275 38.85C37.0089 39.1317 37.3907 39.29 37.7888 39.29ZM24 45C23.1716 45 22.5 44.3284 22.5 43.5V39C22.5 38.1716 23.1716 37.5 24 37.5C24.8284 37.5 25.5 38.1716 25.5 39V43.5C25.5 44.3284 24.8284 45 24 45ZM8.71002 37.7887C8.71002 38.1868 8.86828 38.5686 9.14995 38.8499H9.15145C9.7372 39.4355 10.6867 39.4355 11.2724 38.8499L14.4539 35.6669C14.8439 35.2903 15.0003 34.7326 14.863 34.2082C14.7257 33.6837 14.3162 33.2742 13.7917 33.1369C13.2673 32.9996 12.7096 33.156 12.3329 33.5459L9.14995 36.7274C8.86828 37.0088 8.71002 37.3906 8.71002 37.7887ZM3 24C3 23.1716 3.67157 22.5 4.5 22.5H9C9.82843 22.5 10.5 23.1716 10.5 24C10.5 24.8284 9.82843 25.5 9 25.5H4.5C3.67157 25.5 3 24.8284 3 24ZM10.2113 8.71002C9.81319 8.71002 9.43141 8.86828 9.15006 9.14995V9.15145C8.56449 9.7372 8.56449 10.6867 9.15006 11.2724L12.3331 14.4539C12.7097 14.8439 13.2674 15.0003 13.7918 14.863C14.3163 14.7257 14.7258 14.3162 14.8631 13.7917C15.0004 13.2673 14.844 12.7096 14.4541 12.3329L11.2726 9.14995C10.9912 8.86828 10.6094 8.71002 10.2113 8.71002Z" fill="white"/>
</svg>
