<svg width="38" height="38" viewBox="0 0 38 38" fill="none" xmlns="http://www.w3.org/2000/svg">
<path fill-rule="evenodd" clip-rule="evenodd" d="M2.43902 23.6573C2.98833 27.7918 6.51658 30.8792 10.6875 30.875H27.3125C31.4834 30.8792 35.0116 27.7918 35.5609 23.6573C36.1103 19.5227 33.5105 15.6212 29.4832 14.5362C28.5119 9.63419 24.1882 5.9375 19 5.9375C13.813 5.9375 9.4881 9.63419 8.51673 14.5362C4.48942 15.6212 1.8897 19.5227 2.43902 23.6573ZM27.3125 28.5H10.6875C7.40832 28.5 4.75002 25.8417 4.75002 22.5625C4.75002 19.2833 7.40832 16.625 10.6875 16.625C10.6875 12.0341 14.4091 8.3125 19 8.3125C23.5909 8.3125 27.3125 12.0341 27.3125 16.625C30.5917 16.625 33.25 19.2833 33.25 22.5625C33.25 25.8417 30.5917 28.5 27.3125 28.5Z" fill="white"/>
</svg>
