<svg width="48" height="49" viewBox="0 0 48 49" fill="none" xmlns="http://www.w3.org/2000/svg">
<path fill-rule="evenodd" clip-rule="evenodd" d="M3.08104 25.3829C3.77491 30.6055 8.23164 34.5053 13.5002 34.5H34.5002C39.7687 34.5053 44.2254 30.6055 44.9193 25.3829C45.6131 20.1602 42.3293 15.232 37.2422 13.8615C36.0152 7.6695 30.5537 3 24.0002 3C17.4482 3 11.9852 7.6695 10.7582 13.8615C5.67103 15.232 2.38718 20.1602 3.08104 25.3829ZM34.5001 31.5H13.5001C9.35794 31.5 6.00008 28.1421 6.00008 24C6.00008 19.8579 9.35794 16.5 13.5001 16.5C13.5001 10.701 18.2011 6 24.0001 6C29.7991 6 34.5001 10.701 34.5001 16.5C38.6422 16.5 42.0001 19.8579 42.0001 24C42.0001 28.1421 38.6422 31.5 34.5001 31.5ZM20.25 48.5C19.008 48.5 18 47.426 18 46.1C18 45.215 18.75 44.015 20.25 42.5C21.75 44.015 22.5 45.215 22.5 46.1C22.5 47.426 21.492 48.5 20.25 48.5ZM25.5001 41.1C25.5001 42.426 26.5081 43.5 27.7501 43.5C28.9921 43.5 30.0001 42.426 30.0001 41.1C30.0001 40.215 29.2501 39.015 27.7501 37.5C26.2501 39.015 25.5001 40.215 25.5001 41.1Z" fill="white"/>
</svg>
