<svg width="48" height="48" viewBox="0 0 48 48" fill="none" xmlns="http://www.w3.org/2000/svg">
<path fill-rule="evenodd" clip-rule="evenodd" d="M31.641 26.994C36.6064 26.9159 40.5702 22.8306 40.4984 17.8651C40.4267 12.8996 36.3465 8.93054 31.3809 8.99591C26.4153 9.06128 22.441 13.1363 22.5 18.102C22.5 18.9304 23.1716 19.602 24 19.602C24.8284 19.602 25.5 18.9304 25.5 18.102V17.994C25.5 14.6803 28.1863 11.994 31.5 11.994C34.8137 11.994 37.5 14.6803 37.5 17.994C37.5 21.3077 34.8137 23.994 31.5 23.994V24H4.5C3.67157 24 3 24.6716 3 25.5C3 26.3284 3.67157 27 4.5 27H31.5C31.548 27 31.5945 26.9985 31.641 26.994ZM6 12C5.17157 12 4.5 11.3284 4.5 10.5C4.5 9.67158 5.17157 9.00001 6 9.00001C6.82843 9.00001 7.5 9.67158 7.5 10.5C7.5 11.3284 6.82843 12 6 12ZM11.247 16.4385C10.4186 16.4385 9.74704 15.7669 9.74704 14.9385C9.74704 14.1101 10.4186 13.4385 11.247 13.4385C12.0755 13.4385 12.747 14.1101 12.747 14.9385C12.747 15.7669 12.0755 16.4385 11.247 16.4385ZM6 20.9925C5.17157 20.9925 4.5 20.3209 4.5 19.4925C4.5 18.664 5.17157 17.9925 6 17.9925C6.82843 17.9925 7.5 18.664 7.5 19.4925C7.5 20.3209 6.82843 20.9925 6 20.9925ZM14.9993 19.4932C14.9997 20.3212 15.6708 20.9921 16.4985 20.9925C17.3269 20.9925 17.9985 20.3209 17.9985 19.4925C17.9985 18.664 17.3269 17.9925 16.4985 17.9925C15.6701 17.9929 14.9988 18.6648 14.9993 19.4932ZM14.9993 10.5008C14.9997 11.3287 15.6708 11.9996 16.4985 12C17.3269 12 17.9985 11.3284 17.9985 10.5C17.9985 9.67158 17.3269 9.00001 16.4985 9.00001C15.6701 9.00042 14.9988 9.67233 14.9993 10.5008ZM6 38.9985C5.17157 38.9985 4.5 38.327 4.5 37.4985C4.5 36.6701 5.17157 35.9985 6 35.9985C6.82843 35.9985 7.5 36.6701 7.5 37.4985C7.5 38.327 6.82843 38.9985 6 38.9985ZM15.0045 36H12.0015H12C11.1716 36 10.5 36.6716 10.5 37.5C10.5 38.3284 11.1716 39 12 39H15.0045C15.8329 39 16.5045 38.3284 16.5045 37.5C16.5045 36.6716 15.8329 36 15.0045 36ZM44.9948 34.2727C44.8721 31.7904 42.7604 29.8774 40.278 30H4.5C3.67157 30 3 30.6716 3 31.5C3 32.3284 3.67157 33 4.5 33H40.5L40.59 32.997C41.3975 33.0481 42.0189 33.7303 41.9946 34.539C41.9703 35.3477 41.3091 35.9915 40.5 35.994H40.479V36.0045C39.6924 36.1151 39.1283 36.8198 39.1928 37.6116C39.2573 38.4034 39.9278 39.0076 40.722 38.9895C43.2044 38.8669 45.1174 36.7551 44.9948 34.2727ZM31.479 37.776C31.3461 38.4857 30.7265 39.0001 30.0045 39H27C26.1716 39 25.5 38.3284 25.5 37.5C25.5 36.6716 26.1716 36 27 36H30.003C30.725 36 31.3446 36.5143 31.4775 37.224H31.479V37.776ZM19.5 37.5C19.5 38.3284 20.1716 39 21 39C21.8284 39 22.5 38.3284 22.5 37.5C22.5 36.6716 21.8284 36 21 36C20.1716 36 19.5 36.6716 19.5 37.5Z" fill="white"/>
</svg>
