<svg width="48" height="48" viewBox="0 0 48 48" fill="none" xmlns="http://www.w3.org/2000/svg">
<path fill-rule="evenodd" clip-rule="evenodd" d="M4.5 29.25H31.5C36.4706 29.25 40.5 25.2206 40.5 20.25C40.5 15.2794 36.4706 11.25 31.5 11.25C26.5294 11.25 22.5 15.2794 22.5 20.25V20.3265C22.4946 20.8624 22.7756 21.3604 23.237 21.633C23.6984 21.9056 24.2702 21.9113 24.737 21.648C25.2038 21.3847 25.4946 20.8924 25.5 20.3565C25.4568 17.9205 26.8909 15.7002 29.1291 14.7379C31.3674 13.7755 33.9654 14.2623 35.7035 15.9695C37.4417 17.6768 37.9748 20.2657 37.0527 22.5208C36.1306 24.776 33.9364 26.2496 31.5 26.25H4.5C3.67157 26.25 3 26.9216 3 27.75C3 28.5784 3.67157 29.25 4.5 29.25ZM6 14.2561C5.17157 14.2561 4.5 13.5845 4.5 12.7561C4.5 11.9276 5.17157 11.2561 6 11.2561C6.82843 11.2561 7.5 11.9276 7.5 12.7561C7.5 13.5845 6.82843 14.2561 6 14.2561ZM11.247 18.6929C10.4186 18.6929 9.74704 18.0214 9.74704 17.1929C9.74704 16.3645 10.4186 15.6929 11.247 15.6929C12.0755 15.6929 12.747 16.3645 12.747 17.1929C12.747 18.0214 12.0755 18.6929 11.247 18.6929ZM6 23.25C5.17157 23.25 4.5 22.5784 4.5 21.75C4.5 20.9216 5.17157 20.25 6 20.25C6.82843 20.25 7.5 20.9216 7.5 21.75C7.5 22.5784 6.82843 23.25 6 23.25ZM14.9993 21.7507C14.9997 22.5787 15.6708 23.2496 16.4985 23.25C17.3269 23.25 17.9985 22.5784 17.9985 21.75C17.9985 20.9216 17.3269 20.25 16.4985 20.25C15.6701 20.2504 14.9988 20.9223 14.9993 21.7507ZM16.4985 14.2561C15.6708 14.2557 14.9997 13.5847 14.9993 12.7568C14.9988 11.9284 15.6701 11.2565 16.4985 11.2561C17.3269 11.2561 17.9985 11.9276 17.9985 12.7561C17.9985 13.5845 17.3269 14.2561 16.4985 14.2561ZM43.5 33.75H4.5C3.67157 33.75 3 34.4216 3 35.25C3 36.0784 3.67157 36.75 4.5 36.75H43.5C44.3284 36.75 45 36.0784 45 35.25C45 34.4216 44.3284 33.75 43.5 33.75Z" fill="white"/>
</svg>
