<svg width="48" height="48" viewBox="0 0 48 48" fill="none" xmlns="http://www.w3.org/2000/svg">
<path fill-rule="evenodd" clip-rule="evenodd" d="M3.09228 24.3829C3.78615 29.6055 8.24287 33.5053 13.5114 33.5H34.5114C39.7799 33.5053 44.2366 29.6055 44.9305 24.3829C45.6244 19.1602 42.3405 14.232 37.2534 12.8615C36.0264 6.6695 30.5649 2 24.0114 2C17.4594 2 11.9964 6.6695 10.7694 12.8615C5.68226 14.232 2.39841 19.1602 3.09228 24.3829ZM34.5113 30.5H13.5113C9.36917 30.5 6.01131 27.1421 6.01131 23C6.01131 18.8579 9.36917 15.5 13.5113 15.5C13.5113 9.70101 18.2123 5 24.0113 5C29.8103 5 34.5113 9.70101 34.5113 15.5C38.6534 15.5 42.0113 18.8579 42.0113 23C42.0113 27.1421 38.6534 30.5 34.5113 30.5ZM6.12542 41.1761C6.15298 40.563 6.72957 40.1296 7.32732 40.2728L12.5241 41.5175C15.427 42.2127 18.4432 42.2511 21.3519 41.6298L27.5464 40.3066C30.437 39.6892 33.4339 39.7232 36.3205 40.4062L42.0614 41.7645C42.525 41.8742 42.8465 42.2994 42.8251 42.7746C42.7976 43.3875 42.222 43.8214 41.624 43.6799L36.2132 42.3996C33.3378 41.7193 30.3529 41.6829 27.4724 42.293L21.2226 43.6168C18.34 44.2273 15.3527 44.1904 12.4754 43.5086L6.88763 42.1845C6.42494 42.0749 6.10409 41.6504 6.12542 41.1761ZM7.3755 35.3254C6.77775 35.1822 6.20116 35.6156 6.17359 36.2287C6.15227 36.703 6.47312 37.1275 6.9358 37.2372L12.5235 38.5612C15.4009 39.243 18.3881 39.2799 21.2708 38.6694L27.5206 37.3456C30.401 36.7355 33.386 36.7719 36.2614 37.4522L41.6722 38.7325C42.2702 38.874 42.8457 38.4401 42.8733 37.8272C42.8947 37.352 42.5731 36.9268 42.1096 36.8171L36.3687 35.4588C33.482 34.7758 30.4852 34.7418 27.5946 35.3592L21.4001 36.6824C18.4913 37.3037 15.4752 37.2653 12.5722 36.5701L7.3755 35.3254Z" fill="white"/>
</svg>
