<svg width="48" height="48" viewBox="0 0 48 48" fill="none" xmlns="http://www.w3.org/2000/svg">
<path fill-rule="evenodd" clip-rule="evenodd" d="M10.5114 31.5C5.24287 31.5053 0.786145 27.6055 0.0922754 22.3829C-0.601594 17.1602 2.68226 12.232 7.76938 10.8615C8.99638 4.6695 14.4594 0 21.0114 0C27.5649 0 33.0264 4.6695 34.2534 10.8615C39.3405 12.232 42.6244 17.1602 41.9305 22.3829C41.2366 27.6055 36.7799 31.5053 31.5114 31.5H10.5114ZM10.5116 28.5H31.5116C35.6537 28.5 39.0116 25.1421 39.0116 21C39.0116 16.8579 35.6537 13.5 31.5116 13.5C31.5116 7.70101 26.8105 3 21.0116 3C15.2126 3 10.5116 7.70101 10.5116 13.5C6.36942 13.5 3.01155 16.8579 3.01155 21C3.01155 25.1421 6.36942 28.5 10.5116 28.5ZM30.7615 33.25V34.438L29.92 33.598C29.6253 33.3142 29.1575 33.3189 28.8686 33.6086C28.5797 33.8983 28.5763 34.3661 28.861 34.66L29.701 35.5H28.5115C28.0973 35.5 27.7615 35.8358 27.7615 36.25C27.7615 36.6642 28.0973 37 28.5115 37H29.6995L28.8595 37.8415C28.5756 38.1362 28.5803 38.604 28.8701 38.8929C29.1598 39.1818 29.6276 39.1852 29.9215 38.9005L30.7615 38.0605V39.25C30.7615 39.6642 31.0973 40 31.5115 40C31.9257 40 32.2615 39.6642 32.2615 39.25V38.062L33.103 38.902C33.3977 39.1858 33.8655 39.1811 34.1544 38.8914C34.4433 38.6017 34.4466 38.1339 34.162 37.84L33.322 37H34.5115C34.9257 37 35.2615 36.6642 35.2615 36.25C35.2615 35.8358 34.9257 35.5 34.5115 35.5H33.3235L34.1635 34.6585C34.4473 34.3638 34.4426 33.896 34.1529 33.6071C33.8632 33.3182 33.3954 33.3148 33.1015 33.5995L32.2615 34.4395V33.25C32.2615 32.8358 31.9257 32.5 31.5115 32.5C31.0973 32.5 30.7615 32.8358 30.7615 33.25ZM21.2615 39.438V38.25C21.2615 37.8358 21.5973 37.5 22.0115 37.5C22.4257 37.5 22.7615 37.8358 22.7615 38.25V39.4395L23.6015 38.5995C23.8954 38.3148 24.3632 38.3182 24.6529 38.6071C24.9426 38.896 24.9473 39.3638 24.6635 39.6585L23.8235 40.5H25.0115C25.4257 40.5 25.7615 40.8358 25.7615 41.25C25.7615 41.6642 25.4257 42 25.0115 42H23.822L24.662 42.84C24.9466 43.1339 24.9433 43.6017 24.6544 43.8914C24.3655 44.1811 23.8977 44.1858 23.603 43.902L22.7615 43.062V44.25C22.7615 44.6642 22.4257 45 22.0115 45C21.5973 45 21.2615 44.6642 21.2615 44.25V43.0605L20.4215 43.9005C20.1276 44.1852 19.6598 44.1818 19.3701 43.8929C19.0803 43.604 19.0756 43.1362 19.3595 42.8415L20.1995 42H19.0115C18.5973 42 18.2615 41.6642 18.2615 41.25C18.2615 40.8358 18.5973 40.5 19.0115 40.5H20.201L19.361 39.66C19.0763 39.3661 19.0797 38.8983 19.3686 38.6086C19.6575 38.3189 20.1253 38.3142 20.42 38.598L21.2615 39.438ZM12.0115 43.1C12.0115 44.426 13.0195 45.5 14.2615 45.5C15.5035 45.5 16.5115 44.426 16.5115 43.1C16.5115 42.215 15.7615 41.015 14.2615 39.5C12.7615 41.015 12.0115 42.215 12.0115 43.1ZM29.2615 48C28.0195 48 27.0115 46.926 27.0115 45.6C27.0115 44.715 27.7615 43.515 29.2615 42C30.7615 43.515 31.5115 44.715 31.5115 45.6C31.5115 46.926 30.5035 48 29.2615 48ZM9.76147 33.25V34.438L8.91997 33.598C8.62529 33.3142 8.1575 33.3189 7.86859 33.6086C7.57969 33.8983 7.5763 34.3661 7.86097 34.66L8.70097 35.5H7.51147C7.09726 35.5 6.76147 35.8358 6.76147 36.25C6.76147 36.6642 7.09726 37 7.51147 37H8.69947L7.85947 37.8415C7.57563 38.1362 7.58035 38.604 7.87007 38.8929C8.15979 39.1818 8.6276 39.1852 8.92147 38.9005L9.76147 38.0605V39.25C9.76147 39.6642 10.0973 40 10.5115 40C10.9257 40 11.2615 39.6642 11.2615 39.25V38.062L12.103 38.902C12.3977 39.1858 12.8655 39.1811 13.1544 38.8914C13.4433 38.6017 13.4466 38.1339 13.162 37.84L12.322 37H13.5115C13.9257 37 14.2615 36.6642 14.2615 36.25C14.2615 35.8358 13.9257 35.5 13.5115 35.5H12.3235L13.1635 34.6585C13.4473 34.3638 13.4426 33.896 13.1529 33.6071C12.8632 33.3182 12.3954 33.3148 12.1015 33.5995L11.2615 34.4395V33.25C11.2615 32.8358 10.9257 32.5 10.5115 32.5C10.0973 32.5 9.76147 32.8358 9.76147 33.25Z" fill="white"/>
</svg>
