<svg width="48" height="48" viewBox="0 0 48 48" fill="none" xmlns="http://www.w3.org/2000/svg">
<path fill-rule="evenodd" clip-rule="evenodd" d="M13.5002 34.5C8.23164 34.5053 3.77491 30.6055 3.08104 25.3829C2.38718 20.1602 5.67103 15.232 10.7582 13.8615C11.9852 7.6695 17.4482 3 24.0002 3C30.5537 3 36.0152 7.6695 37.2422 13.8615C42.3293 15.232 45.6131 20.1602 44.9193 25.3829C44.2254 30.6055 39.7687 34.5053 34.5002 34.5H13.5002ZM13.5001 31.5H34.5001C38.6422 31.5 42.0001 28.1421 42.0001 24C42.0001 19.8579 38.6422 16.5 34.5001 16.5C34.5001 10.701 29.7991 6 24.0001 6C18.2011 6 13.5001 10.701 13.5001 16.5C9.35794 16.5 6.00008 19.8579 6.00008 24C6.00008 28.1421 9.35794 31.5 13.5001 31.5ZM12 44.5C12 45.3284 12.6716 46 13.5 46C14.3284 46 15 45.3284 15 44.5C15 43.6716 14.3284 43 13.5 43C12.6716 43 12 43.6716 12 44.5ZM24 46C23.1716 46 22.5 45.3284 22.5 44.5C22.5 43.6716 23.1716 43 24 43C24.8284 43 25.5 43.6716 25.5 44.5C25.5 45.3284 24.8284 46 24 46ZM33 44.5C33 45.3284 33.6716 46 34.5 46C35.3284 46 36 45.3284 36 44.5C36 43.6716 35.3284 43 34.5 43C33.6716 43 33 43.6716 33 44.5ZM7.5 40C6.67157 40 6 39.3284 6 38.5C6 37.6716 6.67157 37 7.5 37C8.32843 37 9 37.6716 9 38.5C9 39.3284 8.32843 40 7.5 40ZM16.9995 38.5C16.9995 39.3284 17.6711 40 18.4995 40C19.3279 40 19.9995 39.3284 19.9995 38.5C19.9995 37.6716 19.3279 37 18.4995 37C17.6711 37 16.9995 37.6716 16.9995 38.5ZM29.5005 40C28.6721 40 28.0005 39.3284 28.0005 38.5C28.0005 37.6716 28.6721 37 29.5005 37C30.3289 37 31.0005 37.6716 31.0005 38.5C31.0005 39.3284 30.3289 40 29.5005 40ZM39 38.5C39 39.3284 39.6716 40 40.5 40C41.3284 40 42 39.3284 42 38.5C42 37.6716 41.3284 37 40.5 37C39.6716 37 39 37.6716 39 38.5Z" fill="white"/>
</svg>
