<svg width="48" height="48" viewBox="0 0 48 48" fill="none" xmlns="http://www.w3.org/2000/svg">
<path fill-rule="evenodd" clip-rule="evenodd" d="M3.0438 25.6802C2.63714 30.0458 4.98473 34.2048 8.93243 36.1125H8.93093C9.40975 36.3537 9.98086 36.3211 10.4291 36.027C10.8774 35.7329 11.1347 35.222 11.1041 34.6867C11.0735 34.1515 10.7598 33.6732 10.2809 33.432C7.11031 31.9289 5.40565 28.4284 6.17741 25.0054C6.94917 21.5825 9.99105 19.1521 13.4999 19.155C13.4999 13.356 18.2009 8.65503 23.9999 8.65503C29.7989 8.65503 34.4999 13.356 34.4999 19.155C37.9947 19.1534 41.0274 21.5657 41.812 24.9712C42.5966 28.3768 40.9251 31.8729 37.7819 33.4005C37.0334 33.7559 36.7148 34.6508 37.0702 35.3993C37.4256 36.1478 38.3204 36.4664 39.0689 36.111L39.0719 36.1095C43.0162 34.1996 45.3603 30.0417 44.9527 25.6783C44.5452 21.3149 41.4717 17.663 37.2419 16.5165C36.0149 10.3245 30.5534 5.65503 23.9999 5.65503C17.4479 5.65503 11.9849 10.3245 10.7579 16.515C6.5258 17.6608 3.45045 21.3146 3.0438 25.6802ZM26.8454 33.912H23.3174L24.8774 30.567C25.2274 29.816 24.9024 28.9235 24.1514 28.5735C23.4004 28.2235 22.5079 28.5485 22.1579 29.2995L19.6229 34.737C19.3883 35.2024 19.4122 35.7563 19.686 36.1998C19.9598 36.6434 20.4442 36.913 20.9654 36.912H24.6734L23.1374 40.2045C22.7874 40.9559 23.1128 41.8487 23.8641 42.1987C24.6155 42.5487 25.5084 42.2234 25.8584 41.472L28.3934 36.0345C28.6245 35.5393 28.5681 34.9577 28.2461 34.5162C27.9241 34.0747 27.3875 33.8432 26.8454 33.912Z" fill="white"/>
</svg>
