<svg width="48" height="51" viewBox="0 0 48 51" fill="none" xmlns="http://www.w3.org/2000/svg">
<path fill-rule="evenodd" clip-rule="evenodd" d="M13.5002 34.5C8.23164 34.5053 3.77491 30.6055 3.08104 25.3829C2.38718 20.1602 5.67103 15.232 10.7582 13.8615C11.9852 7.6695 17.4482 3 24.0002 3C30.5537 3 36.0152 7.6695 37.2422 13.8615C42.3293 15.232 45.6131 20.1602 44.9193 25.3829C44.2254 30.6055 39.7687 34.5053 34.5002 34.5H13.5002ZM13.5 31.5H34.5C38.6421 31.5 42 28.1421 42 24C42 19.8579 38.6421 16.5 34.5 16.5C34.5 10.701 29.799 6 24 6C18.201 6 13.5 10.701 13.5 16.5C9.35786 16.5 6 19.8579 6 24C6 28.1421 9.35786 31.5 13.5 31.5ZM13.5 42.1C13.5 43.426 14.508 44.5 15.75 44.5C16.992 44.5 18 43.426 18 42.1C18 41.215 17.25 40.015 15.75 38.5C14.25 40.015 13.5 41.215 13.5 42.1ZM24 50.5C22.758 50.5 21.75 49.426 21.75 48.1C21.75 47.215 22.5 46.015 24 44.5C25.5 46.015 26.25 47.215 26.25 48.1C26.25 49.426 25.242 50.5 24 50.5ZM30 41.1C30 42.426 31.008 43.5 32.25 43.5C33.492 43.5 34.5 42.426 34.5 41.1C34.5 40.215 33.75 39.015 32.25 37.5C30.75 39.015 30 40.215 30 41.1Z" fill="white"/>
</svg>
