<svg width="48" height="48" viewBox="0 0 48 48" fill="none" xmlns="http://www.w3.org/2000/svg">
<path fill-rule="evenodd" clip-rule="evenodd" d="M3.0808 25.3829C3.77467 30.6055 8.2314 34.5053 13.4999 34.5H34.4999C39.7684 34.5053 44.2251 30.6055 44.919 25.3829C45.6129 20.1602 42.329 15.232 37.2419 13.8615C36.0149 7.6695 30.5534 3 23.9999 3C17.4479 3 11.9849 7.6695 10.7579 13.8615C5.67078 15.232 2.38693 20.1602 3.0808 25.3829ZM34.5001 31.5H13.5001C9.35794 31.5 6.00008 28.1421 6.00008 24C6.00008 19.8579 9.35794 16.5 13.5001 16.5C13.5001 10.701 18.2011 6 24.0001 6C29.7991 6 34.5001 10.701 34.5001 16.5C38.6422 16.5 42.0001 19.8579 42.0001 24C42.0001 28.1421 38.6422 31.5 34.5001 31.5ZM30 42.438V41.25C30 40.8358 30.3358 40.5 30.75 40.5C31.1642 40.5 31.5 40.8358 31.5 41.25V42.4395L32.34 41.5995C32.6339 41.3148 33.1017 41.3182 33.3914 41.6071C33.6811 41.896 33.6858 42.3638 33.402 42.6585L32.562 43.5H33.75C34.1642 43.5 34.5 43.8358 34.5 44.25C34.5 44.6642 34.1642 45 33.75 45H32.5605L33.4005 45.84C33.6852 46.1339 33.6818 46.6017 33.3929 46.8914C33.104 47.1811 32.6362 47.1858 32.3415 46.902L31.5 46.062V47.25C31.5 47.6642 31.1642 48 30.75 48C30.3358 48 30 47.6642 30 47.25V46.0605L29.16 46.9005C28.8661 47.1852 28.3983 47.1818 28.1086 46.8929C27.8189 46.604 27.8142 46.1362 28.098 45.8415L28.938 45H27.75C27.3358 45 27 44.6642 27 44.25C27 43.8358 27.3358 43.5 27.75 43.5H28.9395L28.0995 42.66C27.8148 42.3661 27.8182 41.8983 28.1071 41.6086C28.396 41.3189 28.8638 41.3142 29.1585 41.598L30 42.438ZM17.2501 37.5C16.8359 37.5 16.5001 37.8358 16.5001 38.25V39.438L15.6586 38.598C15.3639 38.3142 14.8961 38.3189 14.6072 38.6086C14.3183 38.8983 14.3149 39.3661 14.5996 39.66L15.4396 40.5H14.2501C13.8359 40.5 13.5001 40.8358 13.5001 41.25C13.5001 41.6642 13.8359 42 14.2501 42H15.4381L14.5981 42.8415C14.3142 43.1362 14.3189 43.604 14.6087 43.8929C14.8984 44.1818 15.3662 44.1852 15.6601 43.9005L16.5001 43.0605V44.25C16.5001 44.6642 16.8359 45 17.2501 45C17.6643 45 18.0001 44.6642 18.0001 44.25V43.062L18.8416 43.902C19.1363 44.1858 19.6041 44.1811 19.893 43.8914C20.1819 43.6017 20.1853 43.1339 19.9006 42.84L19.0606 42H20.2501C20.6643 42 21.0001 41.6642 21.0001 41.25C21.0001 40.8358 20.6643 40.5 20.2501 40.5H19.0621L19.9021 39.6585C20.1859 39.3638 20.1812 38.896 19.8915 38.6071C19.6018 38.3182 19.134 38.3148 18.8401 38.5995L18.0001 39.4395V38.25C18.0001 37.8358 17.6643 37.5 17.2501 37.5Z" fill="white"/>
</svg>
