<svg width="48" height="48" viewBox="0 0 48 48" fill="none" xmlns="http://www.w3.org/2000/svg">
<path fill-rule="evenodd" clip-rule="evenodd" d="M13.5002 34.5C8.23164 34.5053 3.77491 30.6055 3.08104 25.3829C2.38718 20.1602 5.67103 15.232 10.7582 13.8615C11.9852 7.6695 17.4482 3 24.0002 3C30.5537 3 36.0152 7.6695 37.2422 13.8615C42.3293 15.232 45.6131 20.1602 44.9193 25.3829C44.2254 30.6055 39.7687 34.5053 34.5002 34.5H13.5002ZM13.5001 31.5H34.5001C38.6422 31.5 42.0001 28.1421 42.0001 24C42.0001 19.8579 38.6422 16.5 34.5001 16.5C34.5001 10.701 29.7991 6 24.0001 6C18.2011 6 13.5001 10.701 13.5001 16.5C9.35794 16.5 6.00008 19.8579 6.00008 24C6.00008 28.1421 9.35794 31.5 13.5001 31.5ZM21.7501 41.1C21.7501 42.426 22.7581 43.5 24.0001 43.5C25.2421 43.5 26.2501 42.426 26.2501 41.1C26.2501 40.215 25.5001 39.015 24.0001 37.5C22.5001 39.015 21.7501 40.215 21.7501 41.1Z" fill="white"/>
</svg>
