<svg width="42" height="27" viewBox="0 0 42 27" fill="none" xmlns="http://www.w3.org/2000/svg">
<path fill-rule="evenodd" clip-rule="evenodd" d="M0 18.999C0 23.418 3.525 27 7.875 27H23.625C27.975 27 31.5 23.418 31.5 19.0005C31.5 15.3045 29.034 12.1935 25.6815 11.2755C24.762 6.5565 20.664 3 15.75 3C10.836 3 6.738 6.5565 5.8185 11.274C2.466 12.1935 0 15.3045 0 18.999ZM26.9401 22.4529C25.9438 23.4459 24.5937 24.0024 23.187 24H8.313C5.379 24 3 21.63 3 18.7065C3.00238 17.2998 3.56349 15.9516 4.55987 14.9586C5.55625 13.9656 6.90629 13.4091 8.313 13.4115C8.313 9.318 11.643 6 15.75 6C19.857 6 23.187 9.318 23.187 13.4115C26.121 13.4115 28.5 15.7815 28.5 18.705C28.4976 20.1117 27.9365 21.4599 26.9401 22.4529Z" fill="white"/>
<path d="M21.3809 1.2645C21.4546 1.21707 21.5307 1.17351 21.6089 1.134C22.9664 0.4545 24.6344 0 26.2499 0C31.1639 0 35.2619 3.5565 36.1814 8.2755C39.5339 9.1935 41.9999 12.3045 41.9999 16.0005C41.9999 20.418 38.4749 24 34.1249 24H33.4289V23.9985C32.6274 23.9626 31.996 23.3023 31.996 22.5C31.996 21.6977 32.6274 21.0374 33.4289 21.0015V21H33.6869C35.0936 21.0024 36.4437 20.4459 37.4401 19.4529C38.4364 18.4599 38.9975 17.1117 38.9999 15.705C38.9999 12.7815 36.6209 10.4115 33.6869 10.4115C33.6869 6.318 30.3569 3 26.2499 3C25.0439 3 23.6804 3.6375 22.6229 3.9945C22.3254 4.09822 22.0017 4.09927 21.7034 3.9975C21.1312 3.82547 20.7157 3.33021 20.6456 2.7368C20.5756 2.14338 20.8645 1.565 21.3809 1.2645Z" fill="white"/>
</svg>
