<svg width="48" height="48" viewBox="0 0 48 48" fill="none" xmlns="http://www.w3.org/2000/svg">
<path fill-rule="evenodd" clip-rule="evenodd" d="M28.041 8.88905C28.4287 8.79923 28.8362 8.86716 29.1738 9.07787C29.5114 9.28859 29.7514 9.62481 29.841 10.0125L30.177 11.4735C30.339 12.2702 29.8368 13.0509 29.0447 13.2339C28.2526 13.4169 27.4589 12.9356 27.255 12.1485L26.9175 10.6875C26.8277 10.2996 26.8959 9.89198 27.1069 9.55435C27.3179 9.21672 27.6545 8.97683 28.0425 8.88755L28.041 8.88905ZM27.87 16.2225C30.3745 14.3172 33.9254 14.6706 36.0053 17.032C38.0852 19.3935 37.9873 22.9607 35.781 25.2045C35.505 25.4745 35.1285 25.644 34.713 25.644C34.0908 25.644 33.5331 25.2599 33.3114 24.6786C33.0896 24.0973 33.2498 23.4394 33.714 23.025C34.7666 21.879 34.7683 20.1185 33.7179 18.9705C32.6675 17.8225 30.9137 17.6681 29.679 18.615C29.0178 19.0949 28.0942 18.9573 27.6015 18.3057C27.1087 17.654 27.2281 16.7279 27.87 16.2225ZM3 31.0005C3 35.418 6.525 39 10.875 39H26.625C30.975 39 34.5 35.418 34.5 31.0005C34.5 27.3045 32.034 24.195 28.6815 23.2755C27.762 18.558 23.664 15 18.75 15C13.836 15 9.738 18.558 8.8185 23.2755C5.466 24.195 3 27.3045 3 31.0005ZM29.9401 34.4529C28.9438 35.4459 27.5937 36.0024 26.187 36H11.313C8.379 36 6 33.63 6 30.7065C6.00238 29.2998 6.56349 27.9517 7.55987 26.9587C8.55625 25.9657 9.90629 25.4091 11.313 25.4115C11.313 21.318 14.643 18 18.75 18C22.857 18 26.187 21.318 26.187 25.4115C29.121 25.4115 31.5 27.7815 31.5 30.705C31.4976 32.1117 30.9365 33.4599 29.9401 34.4529ZM43.5 23.8501C44.3284 23.8501 45 23.1785 45 22.3501C45 21.5216 44.3284 20.8501 43.5 20.8501H42C41.1716 20.8501 40.5 21.5216 40.5 22.3501C40.5 23.1785 41.1716 23.8501 42 23.8501H43.5ZM40.9515 13.9215C41.4724 13.2778 41.373 12.3337 40.7295 11.8125H40.731C40.0877 11.2914 39.1437 11.3901 38.622 12.033L37.677 13.2C37.3155 13.6136 37.209 14.1917 37.3993 14.707C37.5897 15.2223 38.0465 15.5923 38.59 15.6716C39.1336 15.7508 39.677 15.5265 40.0065 15.087L40.9515 13.9215Z" fill="white"/>
</svg>
