<svg width="48" height="48" viewBox="0 0 48 48" fill="none" xmlns="http://www.w3.org/2000/svg">
<path fill-rule="evenodd" clip-rule="evenodd" d="M3.08104 25.3829C3.77491 30.6055 8.23164 34.5053 13.5002 34.5H34.5002C39.7687 34.5053 44.2254 30.6055 44.9193 25.3829C45.6131 20.1602 42.3293 15.232 37.2422 13.8615C36.0152 7.6695 30.5537 3 24.0002 3C17.4482 3 11.9852 7.6695 10.7582 13.8615C5.67103 15.232 2.38718 20.1602 3.08104 25.3829ZM34.5001 31.5H13.5001C9.35794 31.5 6.00008 28.1421 6.00008 24C6.00008 19.8579 9.35794 16.5 13.5001 16.5C13.5001 10.701 18.2011 6 24.0001 6C29.7991 6 34.5001 10.701 34.5001 16.5C38.6422 16.5 42.0001 19.8579 42.0001 24C42.0001 28.1421 38.6422 31.5 34.5001 31.5ZM12.75 45.5C11.508 45.5 10.5 44.426 10.5 43.1C10.5 42.215 11.25 41.015 12.75 39.5C14.25 41.015 15 42.215 15 43.1C15 44.426 13.992 45.5 12.75 45.5ZM18 40.1C18 41.426 19.008 42.5 20.25 42.5C21.492 42.5 22.5 41.426 22.5 40.1C22.5 39.215 21.75 38.015 20.25 36.5C18.75 38.015 18 39.215 18 40.1ZM27.75 47.5C26.508 47.5 25.5 46.426 25.5 45.1C25.5 44.215 26.25 43.015 27.75 41.5C29.25 43.015 30 44.215 30 45.1C30 46.426 28.992 47.5 27.75 47.5ZM33 42.1C33 43.426 34.008 44.5 35.25 44.5C36.492 44.5 37.5 43.426 37.5 42.1C37.5 41.215 36.75 40.015 35.25 38.5C33.75 40.015 33 41.215 33 42.1Z" fill="white"/>
</svg>
