<svg width="50" height="48" viewBox="0 0 50 48" fill="none" xmlns="http://www.w3.org/2000/svg">
<path fill-rule="evenodd" clip-rule="evenodd" d="M21.609 6.134C21.5308 6.17351 21.4546 6.21707 21.381 6.2645C20.8645 6.565 20.5756 7.14338 20.6457 7.7368C20.7157 8.33021 21.1312 8.82547 21.7035 8.9975C22.0017 9.09927 22.3254 9.09822 22.623 8.9945C22.8591 8.91477 23.1106 8.82104 23.3721 8.72355C24.2817 8.38454 25.3133 8 26.25 8C30.357 8 33.687 11.318 33.687 15.4115C36.621 15.4115 39 17.7815 39 20.705C38.9976 22.1117 38.4365 23.4599 37.4401 24.4529C36.4437 25.4459 35.0937 26.0024 33.687 26H33.429V26.0015C32.6274 26.0374 31.996 26.6977 31.996 27.5C31.996 28.3023 32.6274 28.9626 33.429 28.9985V29H34.125C38.475 29 42 25.418 42 21.0005C42 17.3045 39.534 14.1935 36.1815 13.2755C35.262 8.5565 31.164 5 26.25 5C24.6345 5 22.9665 5.4545 21.609 6.134ZM7.875 32C3.525 32 0 28.418 0 23.999C0 20.3045 2.466 17.1935 5.8185 16.274C6.738 11.5565 10.836 8 15.75 8C20.664 8 24.762 11.5565 25.6815 16.2755C29.034 17.1935 31.5 20.3045 31.5 24.0005C31.5 28.418 27.975 32 23.625 32H7.875ZM23.187 29C24.5937 29.0024 25.9438 28.4459 26.9401 27.4529C27.9365 26.4599 28.4976 25.1117 28.5 23.705C28.5 20.7815 26.121 18.4115 23.187 18.4115C23.187 14.318 19.857 11 15.75 11C11.643 11 8.313 14.318 8.313 18.4115C6.90629 18.4091 5.55625 18.9656 4.55987 19.9586C3.56349 20.9516 3.00238 22.2998 3 23.7065C3 26.63 5.379 29 8.313 29H23.187ZM38.25 45C37.008 45 36 43.926 36 42.6C36 41.715 36.75 40.515 38.25 39C39.75 40.515 40.5 41.715 40.5 42.6C40.5 43.926 39.492 45 38.25 45ZM29 36.6C29 37.926 30.008 39 31.25 39C32.492 39 33.5 37.926 33.5 36.6C33.5 35.715 32.75 34.515 31.25 33C29.75 34.515 29 35.715 29 36.6ZM25.25 48C24.008 48 23 46.926 23 45.6C23 44.715 23.75 43.515 25.25 42C26.75 43.515 27.5 44.715 27.5 45.6C27.5 46.926 26.492 48 25.25 48ZM16 38.6695C16 39.9955 17.008 41.0695 18.25 41.0695C19.492 41.0695 20.5 39.9955 20.5 38.6695C20.5 37.7845 19.75 36.5845 18.25 35.0695C16.75 36.5845 16 37.7845 16 38.6695ZM11.25 46.0695C10.008 46.0695 9 44.9955 9 43.6695C9 42.7845 9.75 41.5845 11.25 40.0695C12.75 41.5845 13.5 42.7845 13.5 43.6695C13.5 44.9955 12.492 46.0695 11.25 46.0695ZM2 37.6C2 38.926 3.008 40 4.25 40C5.492 40 6.5 38.926 6.5 37.6C6.5 36.715 5.75 35.515 4.25 34C2.75 35.515 2 36.715 2 37.6Z" fill="white"/>
</svg>
