<svg width="48" height="48" viewBox="0 0 48 48" fill="none" xmlns="http://www.w3.org/2000/svg">
<path fill-rule="evenodd" clip-rule="evenodd" d="M13.5002 34.5C8.23164 34.5053 3.77491 30.6055 3.08104 25.3829C2.38718 20.1602 5.67103 15.232 10.7582 13.8615C11.9852 7.6695 17.4482 3 24.0002 3C30.5537 3 36.0152 7.6695 37.2422 13.8615C42.3293 15.232 45.6131 20.1602 44.9193 25.3829C44.2254 30.6055 39.7687 34.5053 34.5002 34.5H13.5002ZM13.5001 31.5H34.5001C38.6422 31.5 42.0001 28.1421 42.0001 24C42.0001 19.8579 38.6422 16.5 34.5001 16.5C34.5001 10.701 29.7991 6 24.0001 6C18.2011 6 13.5001 10.701 13.5001 16.5C9.35794 16.5 6.00008 19.8579 6.00008 24C6.00008 28.1421 9.35794 31.5 13.5001 31.5ZM11.0443 37.1275C10.9081 36.7532 10.6287 36.4485 10.2677 36.2805H10.2692C9.90837 36.1119 9.49535 36.0937 9.12113 36.2299C8.7469 36.366 8.44219 36.6454 8.27415 37.0065L7.00665 39.726C6.78024 40.2118 6.83019 40.7815 7.13769 41.2204C7.44519 41.6594 7.96352 41.901 8.49744 41.8542C9.03135 41.8074 9.49974 41.4793 9.72615 40.9935L10.9937 38.2755C11.1623 37.9147 11.1805 37.5017 11.0443 37.1275ZM25.2707 36.2804C25.6315 36.4488 25.9106 36.7536 26.0465 37.1278C26.1824 37.502 26.1639 37.9148 25.9952 38.2754L24.7277 40.9934C24.5101 41.4932 24.0385 41.8356 23.4959 41.8877C22.9534 41.9398 22.4252 41.6935 22.1164 41.2444C21.8076 40.7952 21.7668 40.2139 22.0097 39.7259L23.2772 37.0064C23.4453 36.6458 23.7497 36.3667 24.1236 36.2305C24.4975 36.0943 24.9101 36.1123 25.2707 36.2804ZM41.0443 37.1275C40.9081 36.7532 40.6287 36.4485 40.2677 36.2805H40.2692C39.9084 36.1119 39.4954 36.0937 39.1211 36.2299C38.7469 36.366 38.4422 36.6454 38.2742 37.0065L37.0067 39.726C36.7802 40.2118 36.8302 40.7815 37.1377 41.2204C37.4452 41.6594 37.9635 41.901 38.4974 41.8542C39.0314 41.8074 39.4997 41.4793 39.7262 40.9935L40.9937 38.2755C41.1623 37.9147 41.1805 37.5017 41.0443 37.1275ZM17.7707 39.2804C18.1315 39.4488 18.4106 39.7536 18.5465 40.1278C18.6824 40.502 18.6639 40.9148 18.4952 41.2754L17.2277 43.9934C17.0101 44.4932 16.5385 44.8356 15.9959 44.8877C15.4534 44.9398 14.9252 44.6935 14.6164 44.2444C14.3076 43.7952 14.2668 43.2139 14.5097 42.7259L15.7772 40.0064C15.9453 39.6458 16.2497 39.3667 16.6236 39.2305C16.9975 39.0943 17.4101 39.1123 17.7707 39.2804ZM33.1715 40.1278C33.0356 39.7536 32.7565 39.4488 32.3957 39.2804C32.0351 39.1123 31.6225 39.0943 31.2486 39.2305C30.8747 39.3667 30.5703 39.6458 30.4022 40.0064L29.1347 42.7259C28.8918 43.2139 28.9326 43.7952 29.2414 44.2444C29.5502 44.6935 30.0784 44.9398 30.6209 44.8877C31.1635 44.8356 31.6351 44.4932 31.8527 43.9934L33.1202 41.2754C33.2889 40.9148 33.3074 40.502 33.1715 40.1278Z" fill="white"/>
</svg>
