<svg width="48" height="48" viewBox="0 0 48 48" fill="none" xmlns="http://www.w3.org/2000/svg">
<path fill-rule="evenodd" clip-rule="evenodd" d="M24.609 6.06448C24.5308 6.10399 24.4546 6.14755 24.381 6.19498C23.8645 6.49548 23.5756 7.07386 23.6457 7.66728C23.7157 8.26069 24.1312 8.75595 24.7035 8.92798C25.0017 9.02976 25.3254 9.0287 25.623 8.92498C25.8591 8.84525 26.1106 8.75152 26.3721 8.65404C27.2817 8.31502 28.3133 7.93048 29.25 7.93048C33.357 7.93048 36.687 11.2485 36.687 15.342C39.621 15.342 42 17.712 42 20.6355C41.9976 22.0422 41.4365 23.3903 40.4401 24.3833C39.4437 25.3763 38.0937 25.9329 36.687 25.9305H36.429V25.932C35.6274 25.9679 34.996 26.6281 34.996 27.4305C34.996 28.2328 35.6274 28.8931 36.429 28.929V28.9305H37.125C41.475 28.9305 45 25.3485 45 20.931C45 17.235 42.534 14.124 39.1815 13.206C38.262 8.48698 34.164 4.93048 29.25 4.93048C27.6345 4.93048 25.9665 5.38498 24.609 6.06448ZM10.875 31.9305C6.525 31.9305 3 28.3485 3 23.9295C3 20.235 5.466 17.124 8.8185 16.2045C9.738 11.487 13.836 7.93048 18.75 7.93048C23.664 7.93048 27.762 11.487 28.6815 16.206C32.034 17.124 34.5 20.235 34.5 23.931C34.5 28.3485 30.975 31.9305 26.625 31.9305H10.875ZM26.187 28.9305C27.5937 28.9329 28.9438 28.3763 29.9401 27.3833C30.9365 26.3903 31.4976 25.0422 31.5 23.6355C31.5 20.712 29.121 18.342 26.187 18.342C26.187 14.2485 22.857 10.9305 18.75 10.9305C14.643 10.9305 11.313 14.2485 11.313 18.342C9.90629 18.3396 8.55625 18.8961 7.55987 19.8891C6.56349 20.8821 6.00238 22.2303 6 23.637C6 26.5605 8.379 28.9305 11.313 28.9305H26.187ZM7.67124 35.6278C7.53535 35.2536 7.25627 34.9488 6.89549 34.7805C6.53487 34.6123 6.12222 34.5944 5.74836 34.7305C5.37449 34.8667 5.07003 35.1458 4.90199 35.5065L3.63299 38.226C3.28298 38.9769 3.60802 39.8695 4.35899 40.2195C5.10996 40.5695 6.00248 40.2444 6.35249 39.4935L7.61999 36.7755C7.7887 36.4149 7.80713 36.002 7.67124 35.6278ZM22.2676 34.7805C22.6286 34.9485 22.908 35.2533 23.0442 35.6275C23.1804 36.0017 23.1622 36.4147 22.9936 36.7755L21.7261 39.4935C21.4997 39.9793 21.0313 40.3074 20.4974 40.3542C19.9634 40.401 19.4451 40.1594 19.1376 39.7205C18.8301 39.2815 18.7802 38.7118 19.0066 38.226L20.2741 35.5065C20.4421 35.1455 20.7468 34.8661 21.121 34.7299C21.4953 34.5937 21.9083 34.6119 22.2691 34.7805H22.2676ZM38.0442 35.6275C37.908 35.2533 37.6286 34.9485 37.2676 34.7805H37.2691C36.9083 34.6119 36.4953 34.5937 36.1211 34.7299C35.7468 34.8661 35.4421 35.1455 35.2741 35.5065L34.0066 38.226C33.7802 38.7118 33.8301 39.2815 34.1376 39.7205C34.4451 40.1594 34.9634 40.401 35.4974 40.3542C36.0313 40.3074 36.4997 39.9793 36.7261 39.4935L37.9936 36.7755C38.1622 36.4147 38.1804 36.0017 38.0442 35.6275ZM14.7676 37.7805C15.1286 37.9485 15.408 38.2533 15.5442 38.6275C15.6804 39.0017 15.6622 39.4147 15.4936 39.7755L14.2261 42.4935C13.9997 42.9793 13.5313 43.3074 12.9974 43.3542C12.4634 43.401 11.9451 43.1594 11.6376 42.7205C11.3301 42.2815 11.2802 41.7118 11.5066 41.226L12.7741 38.5065C12.9421 38.1455 13.2468 37.8661 13.621 37.7299C13.9953 37.5937 14.4083 37.6119 14.7691 37.7805H14.7676ZM30.5442 38.6275C30.408 38.2533 30.1286 37.9485 29.7676 37.7805H29.7691C29.4083 37.6119 28.9953 37.5937 28.621 37.7299C28.2468 37.8661 27.9421 38.1455 27.7741 38.5065L26.5066 41.226C26.2802 41.7118 26.3301 42.2815 26.6376 42.7205C26.9451 43.1594 27.4634 43.401 27.9974 43.3542C28.5313 43.3074 28.9997 42.9793 29.2261 42.4935L30.4936 39.7755C30.6622 39.4147 30.6804 39.0017 30.5442 38.6275ZM43.641 37.7805C44.0017 37.9488 44.2808 38.2536 44.4167 38.6278C44.5526 39.002 44.5342 39.4149 44.3655 39.7755L43.098 42.4935C42.8803 42.9932 42.4087 43.3356 41.8662 43.3877C41.3236 43.4398 40.7954 43.1935 40.4866 42.7444C40.1778 42.2952 40.137 41.7139 40.38 41.226L41.6475 38.5065C41.8155 38.1458 42.12 37.8667 42.4938 37.7305C42.8677 37.5944 43.2803 37.6123 43.641 37.7805Z" fill="white"/>
</svg>
