<svg width="48" height="48" viewBox="0 0 48 48" fill="none" xmlns="http://www.w3.org/2000/svg">
<path fill-rule="evenodd" clip-rule="evenodd" d="M24.3812 4.2645C24.4549 4.21707 24.531 4.17351 24.6092 4.134C25.9667 3.4545 27.6347 3 29.2502 3C34.1642 3 38.2622 6.558 39.1817 11.2755C42.5342 12.195 45.0002 15.3045 45.0002 19.0005C45.0002 23.418 41.4752 27 37.1252 27H36.4292V26.9985C35.6277 26.9626 34.9963 26.3023 34.9963 25.5C34.9963 24.6977 35.6277 24.0374 36.4292 24.0015V24H36.6872C38.0939 24.0024 39.444 23.4459 40.4403 22.4529C41.4367 21.4599 41.9978 20.1117 42.0002 18.705C42.0002 15.7815 39.6212 13.4115 36.6872 13.4115C36.6872 9.318 33.3572 6 29.2502 6C28.3169 6 27.2892 6.38272 26.382 6.72056C26.117 6.81926 25.8623 6.91413 25.6232 6.9945C25.3257 7.09822 25.0019 7.09927 24.7037 6.9975C24.1315 6.82547 23.7159 6.33021 23.6459 5.7368C23.5759 5.14338 23.8647 4.565 24.3812 4.2645ZM3 22.0005C3 26.418 6.525 30 10.875 30H26.625C30.975 30 34.5 26.418 34.5 22.0005C34.5 18.3045 32.034 15.195 28.6815 14.2755C27.762 9.558 23.664 6 18.75 6C13.836 6 9.738 9.558 8.8185 14.2755C5.466 15.195 3 18.3045 3 22.0005ZM29.9401 25.4529C28.9438 26.4459 27.5937 27.0024 26.187 27H11.313C8.379 27 6 24.63 6 21.7065C6.00238 20.2998 6.56349 18.9516 7.55987 17.9586C8.55625 16.9656 9.90629 16.4091 11.313 16.4115C11.313 12.318 14.643 9 18.75 9C22.857 9 26.187 12.318 26.187 16.4115C29.121 16.4115 31.5 18.7815 31.5 21.705C31.4976 23.1117 30.9365 24.4599 29.9401 25.4529ZM24 32.7525C23.5858 32.7525 23.25 33.0883 23.25 33.5025V34.6905L22.4085 33.8505C22.1124 33.5784 21.6544 33.5882 21.3703 33.8727C21.0861 34.1573 21.077 34.6153 21.3495 34.911L22.1895 35.7525H21C20.5858 35.7525 20.25 36.0883 20.25 36.5025C20.25 36.9167 20.5858 37.2525 21 37.2525H22.188L21.348 38.0925C21.1586 38.2822 21.0847 38.5585 21.1543 38.8175C21.2239 39.0764 21.4263 39.2785 21.6853 39.3477C21.9443 39.4169 22.2206 39.3427 22.41 39.153L23.25 38.313V39.5025C23.25 39.9167 23.5858 40.2525 24 40.2525C24.4142 40.2525 24.75 39.9167 24.75 39.5025V38.313L25.5915 39.153C25.8876 39.4251 26.3456 39.4153 26.6297 39.1307C26.9139 38.8462 26.923 38.3882 26.6505 38.0925L25.8105 37.251H27C27.4142 37.251 27.75 36.9152 27.75 36.501C27.75 36.0868 27.4142 35.751 27 35.751H25.812L26.652 34.911C26.9448 34.6177 26.9445 34.1426 26.6512 33.8497C26.358 33.5569 25.8828 33.5572 25.59 33.8505L24.75 34.6905V33.5025C24.75 33.0883 24.4142 32.7525 24 32.7525ZM39.0047 33.5025C39.0047 33.0883 39.3405 32.7525 39.7547 32.7525C40.1689 32.7525 40.5047 33.0883 40.5047 33.5025V34.6905L41.3447 33.8505C41.5341 33.6608 41.8104 33.5865 42.0694 33.6557C42.3284 33.7249 42.5308 33.9271 42.6004 34.186C42.67 34.4449 42.5961 34.7213 42.4067 34.911L41.5667 35.751H42.7547C43.1689 35.751 43.5047 36.0868 43.5047 36.501C43.5047 36.9152 43.1689 37.251 42.7547 37.251H41.5652L42.4052 38.0925C42.6777 38.3882 42.6686 38.8462 42.3844 39.1307C42.1003 39.4153 41.6423 39.4251 41.3462 39.153L40.5062 38.313V39.5025C40.5062 39.9167 40.1704 40.2525 39.7562 40.2525C39.342 40.2525 39.0062 39.9167 39.0062 39.5025V38.313L38.1647 39.153C37.9753 39.3427 37.699 39.4169 37.44 39.3477C37.181 39.2785 36.9786 39.0764 36.909 38.8175C36.8394 38.5585 36.9133 38.2822 37.1027 38.0925L37.9442 37.2525H36.7547C36.3405 37.2525 36.0047 36.9167 36.0047 36.5025C36.0047 36.0883 36.3405 35.7525 36.7547 35.7525H37.9442L37.1042 34.911C36.9092 34.7227 36.831 34.4438 36.8997 34.1816C36.9683 33.9194 37.1731 33.7146 37.4353 33.6459C37.6975 33.5773 37.9764 33.6555 38.1647 33.8505L39.0047 34.6905V33.5025ZM8.26952 32.7525C7.8553 32.7525 7.51952 33.0883 7.51952 33.5025V34.6905L6.67952 33.8505C6.38523 33.5662 5.91745 33.5703 5.62815 33.8596C5.33885 34.1489 5.33479 34.6167 5.61902 34.911L6.45902 35.7525H5.26952C4.8553 35.7525 4.51952 36.0883 4.51952 36.5025C4.51952 36.9167 4.8553 37.2525 5.26952 37.2525H6.45902L5.61752 38.0925C5.42808 38.2822 5.35423 38.5585 5.42381 38.8175C5.49338 39.0764 5.69579 39.2785 5.95481 39.3477C6.21382 39.4169 6.49008 39.3427 6.67952 39.153L7.52102 38.313V39.5025C7.52102 39.9167 7.8568 40.2525 8.27102 40.2525C8.68523 40.2525 9.02102 39.9167 9.02102 39.5025V38.313L9.86102 39.153C10.1553 39.4372 10.6231 39.4331 10.9124 39.1438C11.2017 38.8545 11.2057 38.3868 10.9215 38.0925L10.08 37.251H11.2695C11.6837 37.251 12.0195 36.9152 12.0195 36.501C12.0195 36.0868 11.6837 35.751 11.2695 35.751H10.0815L10.9215 34.911C11.111 34.7213 11.1848 34.4449 11.1152 34.186C11.0457 33.9271 10.8432 33.7249 10.5842 33.6557C10.3252 33.5865 10.049 33.6608 9.85952 33.8505L9.01952 34.6905V33.5025C9.01952 33.0883 8.68373 32.7525 8.26952 32.7525ZM15.375 38.25C15.375 37.8358 15.7108 37.5 16.125 37.5C16.5392 37.5 16.875 37.8358 16.875 38.25V39.4395L17.715 38.5995C18.0089 38.3148 18.4767 38.3182 18.7664 38.6071C19.0561 38.896 19.0608 39.3638 18.777 39.6585L17.937 40.5H19.125C19.5392 40.5 19.875 40.8358 19.875 41.25C19.875 41.6642 19.5392 42 19.125 42H17.9355L18.7755 42.84C19.0602 43.1339 19.0568 43.6017 18.7679 43.8914C18.479 44.1811 18.0112 44.1858 17.7165 43.902L16.875 43.062V44.25C16.875 44.6642 16.5392 45 16.125 45C15.7108 45 15.375 44.6642 15.375 44.25V43.0605L14.535 43.9005C14.2411 44.1852 13.7733 44.1818 13.4836 43.8929C13.1939 43.604 13.1892 43.1362 13.473 42.8415L14.313 42H13.125C12.7108 42 12.375 41.6642 12.375 41.25C12.375 40.8358 12.7108 40.5 13.125 40.5H14.3145L13.4745 39.66C13.1898 39.3661 13.1932 38.8983 13.4821 38.6086C13.771 38.3189 14.2388 38.3142 14.5335 38.598L15.375 39.438V38.25ZM31.875 37.5C31.4608 37.5 31.125 37.8358 31.125 38.25V39.438L30.2835 38.598C29.9888 38.3142 29.521 38.3189 29.2321 38.6086C28.9432 38.8983 28.9398 39.3661 29.2245 39.66L30.0645 40.5H28.875C28.4608 40.5 28.125 40.8358 28.125 41.25C28.125 41.6642 28.4608 42 28.875 42H30.063L29.223 42.8415C28.9392 43.1362 28.9439 43.604 29.2336 43.8929C29.5233 44.1818 29.9911 44.1852 30.285 43.9005L31.125 43.0605V44.25C31.125 44.6642 31.4608 45 31.875 45C32.2892 45 32.625 44.6642 32.625 44.25V43.062L33.4665 43.902C33.7612 44.1858 34.229 44.1811 34.5179 43.8914C34.8068 43.6017 34.8102 43.1339 34.5255 42.84L33.6855 42H34.875C35.2892 42 35.625 41.6642 35.625 41.25C35.625 40.8358 35.2892 40.5 34.875 40.5H33.687L34.527 39.6585C34.8108 39.3638 34.8061 38.896 34.5164 38.6071C34.2267 38.3182 33.7589 38.3148 33.465 38.5995L32.625 39.4395V38.25C32.625 37.8358 32.2892 37.5 31.875 37.5Z" fill="white"/>
</svg>
