<svg width="48" height="52" viewBox="0 0 48 52" fill="none" xmlns="http://www.w3.org/2000/svg">
<path fill-rule="evenodd" clip-rule="evenodd" d="M13.5002 34.5C8.23164 34.5053 3.77491 30.6055 3.08104 25.3829C2.38718 20.1602 5.67103 15.232 10.7582 13.8615C11.9852 7.6695 17.4482 3 24.0002 3C30.5537 3 36.0152 7.6695 37.2422 13.8615C42.3293 15.232 45.6131 20.1602 44.9193 25.3829C44.2254 30.6055 39.7687 34.5053 34.5002 34.5H13.5002ZM13.5001 31.5H34.5001C38.6422 31.5 42.0001 28.1421 42.0001 24C42.0001 19.8579 38.6422 16.5 34.5001 16.5C34.5001 10.701 29.7991 6 24.0001 6C18.2011 6 13.5001 10.701 13.5001 16.5C9.35794 16.5 6.00008 19.8579 6.00008 24C6.00008 28.1421 9.35794 31.5 13.5001 31.5ZM33.75 39.25V40.438L32.9085 39.598C32.6138 39.3142 32.146 39.3189 31.8571 39.6086C31.5682 39.8983 31.5648 40.3661 31.8495 40.66L32.6895 41.5H31.5C31.0858 41.5 30.75 41.8358 30.75 42.25C30.75 42.6642 31.0858 43 31.5 43H32.688L31.848 43.8415C31.5642 44.1362 31.5689 44.604 31.8586 44.8929C32.1483 45.1818 32.6161 45.1852 32.91 44.9005L33.75 44.0605V45.25C33.75 45.6642 34.0858 46 34.5 46C34.9142 46 35.25 45.6642 35.25 45.25V44.062L36.0915 44.902C36.3862 45.1858 36.854 45.1811 37.1429 44.8914C37.4318 44.6017 37.4352 44.1339 37.1505 43.84L36.3105 43H37.5C37.9142 43 38.25 42.6642 38.25 42.25C38.25 41.8358 37.9142 41.5 37.5 41.5H36.312L37.152 40.6585C37.4358 40.3638 37.4311 39.896 37.1414 39.6071C36.8517 39.3182 36.3839 39.3148 36.09 39.5995L35.25 40.4395V39.25C35.25 38.8358 34.9142 38.5 34.5 38.5C34.0858 38.5 33.75 38.8358 33.75 39.25ZM23.25 46.438V45.25C23.25 44.8358 23.5858 44.5 24 44.5C24.4142 44.5 24.75 44.8358 24.75 45.25V46.4395L25.59 45.5995C25.8839 45.3148 26.3517 45.3182 26.6414 45.6071C26.9311 45.896 26.9358 46.3638 26.652 46.6585L25.812 47.5H27C27.4142 47.5 27.75 47.8358 27.75 48.25C27.75 48.6642 27.4142 49 27 49H25.8105L26.6505 49.84C26.9352 50.1339 26.9318 50.6017 26.6429 50.8914C26.354 51.1811 25.8862 51.1858 25.5915 50.902L24.75 50.062V51.25C24.75 51.6642 24.4142 52 24 52C23.5858 52 23.25 51.6642 23.25 51.25V50.0605L22.41 50.9005C22.1161 51.1852 21.6483 51.1818 21.3586 50.8929C21.0689 50.604 21.0642 50.1362 21.348 49.8415L22.188 49H21C20.5858 49 20.25 48.6642 20.25 48.25C20.25 47.8358 20.5858 47.5 21 47.5H22.1895L21.3495 46.66C21.0648 46.3661 21.0682 45.8983 21.3571 45.6086C21.646 45.3189 22.1138 45.3142 22.4085 45.598L23.25 46.438ZM12.75 37.25V38.438L11.9085 37.598C11.6138 37.3142 11.146 37.3189 10.8571 37.6086C10.5682 37.8983 10.5648 38.3661 10.8495 38.66L11.6895 39.5H10.5C10.0858 39.5 9.75 39.8358 9.75 40.25C9.75 40.6642 10.0858 41 10.5 41H11.688L10.848 41.8415C10.5642 42.1362 10.5689 42.604 10.8586 42.8929C11.1483 43.1818 11.6161 43.1852 11.91 42.9005L12.75 42.0605V43.25C12.75 43.6642 13.0858 44 13.5 44C13.9142 44 14.25 43.6642 14.25 43.25V42.062L15.0915 42.902C15.3862 43.1858 15.854 43.1811 16.1429 42.8914C16.4318 42.6017 16.4352 42.1339 16.1505 41.84L15.3105 41H16.5C16.9142 41 17.25 40.6642 17.25 40.25C17.25 39.8358 16.9142 39.5 16.5 39.5H15.312L16.152 38.6585C16.4358 38.3638 16.4311 37.896 16.1414 37.6071C15.8517 37.3182 15.3839 37.3148 15.09 37.5995L14.25 38.4395V37.25C14.25 36.8358 13.9142 36.5 13.5 36.5C13.0858 36.5 12.75 36.8358 12.75 37.25Z" fill="white"/>
</svg>
